<?xml version="1.0" encoding="UTF-8" ?>
<svg version="1.1" width="16" height="16" xmlns="http://www.w3.org/2000/svg" shape-rendering="crispEdges">
<rect x="0" y="0" width="1" height="1" fill="#007B94" opacity="0.000000" />
<rect x="1" y="0" width="1" height="1" fill="#000000" />
<rect x="2" y="0" width="1" height="1" fill="#BD7321" />
<rect x="3" y="0" width="1" height="1" fill="#DEAD63" />
<rect x="4" y="0" width="1" height="1" fill="#FFE79C" />
<rect x="5" y="0" width="1" height="1" fill="#A50010" />
<rect x="6" y="0" width="1" height="1" fill="#FF0018" />
<rect x="7" y="0" width="1" height="1" fill="#FF84AD" />
<rect x="8" y="0" width="1" height="1" fill="#0063B5" />
<rect x="9" y="0" width="1" height="1" fill="#189CE7" />
<rect x="10" y="0" width="1" height="1" fill="#8CDEFF" />
<rect x="11" y="0" width="1" height="1" fill="#7B8C94" />
<rect x="12" y="0" width="1" height="1" fill="#9CADB5" />
<rect x="13" y="0" width="1" height="1" fill="#BDC6CE" />
<rect x="14" y="0" width="1" height="1" fill="#DEE7E7" />
<rect x="15" y="0" width="1" height="1" fill="#FFFFFF" />
<rect x="0" y="1" width="1" height="1" fill="#007B94" />
<rect x="1" y="1" width="1" height="1" fill="#000000" />
<rect x="2" y="1" width="1" height="1" fill="#BD7321" />
<rect x="3" y="1" width="1" height="1" fill="#DEAD63" />
<rect x="4" y="1" width="1" height="1" fill="#FFE79C" />
<rect x="5" y="1" width="1" height="1" fill="#C652C6" />
<rect x="6" y="1" width="1" height="1" fill="#FF8CFF" />
<rect x="7" y="1" width="1" height="1" fill="#FFCEFF" />
<rect x="8" y="1" width="1" height="1" fill="#733900" />
<rect x="9" y="1" width="1" height="1" fill="#A55A18" />
<rect x="10" y="1" width="1" height="1" fill="#DE7318" />
<rect x="11" y="1" width="1" height="1" fill="#218400" />
<rect x="12" y="1" width="1" height="1" fill="#5AB521" />
<rect x="13" y="1" width="1" height="1" fill="#7BDE52" />
<rect x="14" y="1" width="1" height="1" fill="#B5FF8C" />
<rect x="15" y="1" width="1" height="1" fill="#FFFFFF" />
<rect x="0" y="2" width="1" height="1" fill="#007B94" />
<rect x="1" y="2" width="1" height="1" fill="#000000" />
<rect x="2" y="2" width="1" height="1" fill="#52299C" />
<rect x="3" y="2" width="1" height="1" fill="#8C63BD" />
<rect x="4" y="2" width="1" height="1" fill="#B594DE" />
<rect x="5" y="2" width="1" height="1" fill="#CE9400" />
<rect x="6" y="2" width="1" height="1" fill="#F7E700" />
<rect x="7" y="2" width="1" height="1" fill="#FFFFA5" />
<rect x="8" y="2" width="1" height="1" fill="#31398C" />
<rect x="9" y="2" width="1" height="1" fill="#4A5A94" />
<rect x="10" y="2" width="1" height="1" fill="#6384AD" />
<rect x="11" y="2" width="1" height="1" fill="#42636B" />
<rect x="12" y="2" width="1" height="1" fill="#7B8C94" />
<rect x="13" y="2" width="1" height="1" fill="#ADB5BD" />
<rect x="14" y="2" width="1" height="1" fill="#D6DEDE" />
<rect x="15" y="2" width="1" height="1" fill="#FFFFFF" />
<rect x="0" y="3" width="1" height="1" fill="#007B94" />
<rect x="1" y="3" width="1" height="1" fill="#000000" />
<rect x="2" y="3" width="1" height="1" fill="#9C0000" />
<rect x="3" y="3" width="1" height="1" fill="#D63900" />
<rect x="4" y="3" width="1" height="1" fill="#FF845A" />
<rect x="5" y="3" width="1" height="1" fill="#008484" />
<rect x="6" y="3" width="1" height="1" fill="#31BDF7" />
<rect x="7" y="3" width="1" height="1" fill="#73FFFF" />
<rect x="8" y="3" width="1" height="1" fill="#9C5A00" />
<rect x="9" y="3" width="1" height="1" fill="#CE9C00" />
<rect x="10" y="3" width="1" height="1" fill="#FFF700" />
<rect x="11" y="3" width="1" height="1" fill="#218400" />
<rect x="12" y="3" width="1" height="1" fill="#5AB521" />
<rect x="13" y="3" width="1" height="1" fill="#7BDE52" />
<rect x="14" y="3" width="1" height="1" fill="#D6EFA5" />
<rect x="15" y="3" width="1" height="1" fill="#FFFFFF" />
<rect x="0" y="4" width="1" height="1" fill="#007B94" />
<rect x="1" y="4" width="1" height="1" fill="#000000" />
<rect x="2" y="4" width="1" height="1" fill="#0052C6" />
<rect x="3" y="4" width="1" height="1" fill="#008CFF" />
<rect x="4" y="4" width="1" height="1" fill="#39CEFF" />
<rect x="5" y="4" width="1" height="1" fill="#0052C6" />
<rect x="6" y="4" width="1" height="1" fill="#008CFF" />
<rect x="7" y="4" width="1" height="1" fill="#39CEFF" />
<rect x="8" y="4" width="1" height="1" fill="#E73963" />
<rect x="9" y="4" width="1" height="1" fill="#FF8CAD" />
<rect x="10" y="4" width="1" height="1" fill="#FFC6D6" />
<rect x="11" y="4" width="1" height="1" fill="#9C0000" />
<rect x="12" y="4" width="1" height="1" fill="#D63900" />
<rect x="13" y="4" width="1" height="1" fill="#FF845A" />
<rect x="14" y="4" width="1" height="1" fill="#FFC6AD" />
<rect x="15" y="4" width="1" height="1" fill="#FFFFFF" />
<rect x="0" y="5" width="1" height="1" fill="#007B94" />
<rect x="1" y="5" width="1" height="1" fill="#000000" />
<rect x="2" y="5" width="1" height="1" fill="#006B00" />
<rect x="3" y="5" width="1" height="1" fill="#00A539" />
<rect x="4" y="5" width="1" height="1" fill="#39E77B" />
<rect x="5" y="5" width="1" height="1" fill="#10A552" />
<rect x="6" y="5" width="1" height="1" fill="#4ADE8C" />
<rect x="7" y="5" width="1" height="1" fill="#8CFFCE" />
<rect x="8" y="5" width="1" height="1" fill="#5263B5" />
<rect x="9" y="5" width="1" height="1" fill="#849CFF" />
<rect x="10" y="5" width="1" height="1" fill="#B5CEFF" />
<rect x="11" y="5" width="1" height="1" fill="#733900" />
<rect x="12" y="5" width="1" height="1" fill="#A56B00" />
<rect x="13" y="5" width="1" height="1" fill="#DEB500" />
<rect x="14" y="5" width="1" height="1" fill="#FFF700" />
<rect x="15" y="5" width="1" height="1" fill="#FFFFFF" />
<rect x="0" y="6" width="1" height="1" fill="#007B94" />
<rect x="1" y="6" width="1" height="1" fill="#000000" />
<rect x="2" y="6" width="1" height="1" fill="#9C5A00" />
<rect x="3" y="6" width="1" height="1" fill="#CE9C00" />
<rect x="4" y="6" width="1" height="1" fill="#FFF700" />
<rect x="5" y="6" width="1" height="1" fill="#00AD00" />
<rect x="6" y="6" width="1" height="1" fill="#00FF00" />
<rect x="7" y="6" width="1" height="1" fill="#7BFF7B" />
<rect x="8" y="6" width="1" height="1" fill="#9C0000" />
<rect x="9" y="6" width="1" height="1" fill="#D63900" />
<rect x="10" y="6" width="1" height="1" fill="#FF845A" />
<rect x="11" y="6" width="1" height="1" fill="#0039AD" />
<rect x="12" y="6" width="1" height="1" fill="#2184D6" />
<rect x="13" y="6" width="1" height="1" fill="#42C6FF" />
<rect x="14" y="6" width="1" height="1" fill="#A5EFFF" />
<rect x="15" y="6" width="1" height="1" fill="#FFFFFF" />
<rect x="0" y="7" width="1" height="1" fill="#007B94" />
<rect x="1" y="7" width="1" height="1" fill="#000000" />
<rect x="2" y="7" width="1" height="1" fill="#52009C" />
<rect x="3" y="7" width="1" height="1" fill="#8C00D6" />
<rect x="4" y="7" width="1" height="1" fill="#DE4AFF" />
<rect x="5" y="7" width="1" height="1" fill="#BD5200" />
<rect x="6" y="7" width="1" height="1" fill="#FF9400" />
<rect x="7" y="7" width="1" height="1" fill="#FFCE31" />
<rect x="8" y="7" width="1" height="1" fill="#843984" />
<rect x="9" y="7" width="1" height="1" fill="#AD6BB5" />
<rect x="10" y="7" width="1" height="1" fill="#D694DE" />
<rect x="11" y="7" width="1" height="1" fill="#215AC6" />
<rect x="12" y="7" width="1" height="1" fill="#52A5E7" />
<rect x="13" y="7" width="1" height="1" fill="#7BE7FF" />
<rect x="14" y="7" width="1" height="1" fill="#B5FFFF" />
<rect x="15" y="7" width="1" height="1" fill="#FFFFFF" />
<rect x="0" y="8" width="1" height="1" fill="#007B94" />
<rect x="1" y="8" width="1" height="1" fill="#000000" />
<rect x="2" y="8" width="1" height="1" fill="#0052C6" />
<rect x="3" y="8" width="1" height="1" fill="#008CFF" />
<rect x="4" y="8" width="1" height="1" fill="#39CEFF" />
<rect x="5" y="8" width="1" height="1" fill="#63B500" />
<rect x="6" y="8" width="1" height="1" fill="#ADFF00" />
<rect x="7" y="8" width="1" height="1" fill="#F7FF73" />
<rect x="8" y="8" width="1" height="1" fill="#BD7321" />
<rect x="9" y="8" width="1" height="1" fill="#DEAD63" />
<rect x="10" y="8" width="1" height="1" fill="#FFE79C" />
<rect x="11" y="8" width="1" height="1" fill="#52009C" />
<rect x="12" y="8" width="1" height="1" fill="#8C00D6" />
<rect x="13" y="8" width="1" height="1" fill="#B54AFF" />
<rect x="14" y="8" width="1" height="1" fill="#CEA5FF" />
<rect x="15" y="8" width="1" height="1" fill="#FFFFFF" />
<rect x="0" y="9" width="1" height="1" fill="#007B94" />
<rect x="1" y="9" width="1" height="1" fill="#000000" />
<rect x="2" y="9" width="1" height="1" fill="#008484" />
<rect x="3" y="9" width="1" height="1" fill="#31BDF7" />
<rect x="4" y="9" width="1" height="1" fill="#73FFFF" />
<rect x="5" y="9" width="1" height="1" fill="#006B00" />
<rect x="6" y="9" width="1" height="1" fill="#00A539" />
<rect x="7" y="9" width="1" height="1" fill="#39E77B" />
<rect x="8" y="9" width="1" height="1" fill="#733900" />
<rect x="9" y="9" width="1" height="1" fill="#DE7318" />
<rect x="10" y="9" width="1" height="1" fill="#FF9442" />
<rect x="11" y="9" width="1" height="1" fill="#BD8C00" />
<rect x="12" y="9" width="1" height="1" fill="#DEC600" />
<rect x="13" y="9" width="1" height="1" fill="#FFF700" />
<rect x="14" y="9" width="1" height="1" fill="#FFFF7B" />
<rect x="15" y="9" width="1" height="1" fill="#FFFFFF" />
<rect x="0" y="10" width="1" height="1" fill="#007B94" />
<rect x="1" y="10" width="1" height="1" fill="#000000" />
<rect x="2" y="10" width="1" height="1" fill="#9C0000" />
<rect x="3" y="10" width="1" height="1" fill="#D63900" />
<rect x="4" y="10" width="1" height="1" fill="#FF845A" />
<rect x="5" y="10" width="1" height="1" fill="#4A5A6B" />
<rect x="6" y="10" width="1" height="1" fill="#63849C" />
<rect x="7" y="10" width="1" height="1" fill="#B5C6CE" />
<rect x="8" y="10" width="1" height="1" fill="#218400" />
<rect x="9" y="10" width="1" height="1" fill="#5AC631" />
<rect x="10" y="10" width="1" height="1" fill="#8CFF63" />
<rect x="11" y="10" width="1" height="1" fill="#002942" />
<rect x="12" y="10" width="1" height="1" fill="#4A6B7B" />
<rect x="13" y="10" width="1" height="1" fill="#94ADB5" />
<rect x="14" y="10" width="1" height="1" fill="#DEEFEF" />
<rect x="15" y="10" width="1" height="1" fill="#FFFFFF" />
<rect x="0" y="11" width="1" height="1" fill="#007B94" />
<rect x="1" y="11" width="1" height="1" fill="#000000" />
<rect x="2" y="11" width="1" height="1" fill="#9C5A00" />
<rect x="3" y="11" width="1" height="1" fill="#CE9C00" />
<rect x="4" y="11" width="1" height="1" fill="#FFF700" />
<rect x="5" y="11" width="1" height="1" fill="#841000" />
<rect x="6" y="11" width="1" height="1" fill="#BD4A00" />
<rect x="7" y="11" width="1" height="1" fill="#FF8C39" />
<rect x="8" y="11" width="1" height="1" fill="#7B8C94" />
<rect x="9" y="11" width="1" height="1" fill="#ADB5BD" />
<rect x="10" y="11" width="1" height="1" fill="#D6DEDE" />
<rect x="11" y="11" width="1" height="1" fill="#000000" />
<rect x="12" y="11" width="1" height="1" fill="#212929" />
<rect x="13" y="11" width="1" height="1" fill="#4A5252" />
<rect x="14" y="11" width="1" height="1" fill="#8C948C" />
<rect x="15" y="11" width="1" height="1" fill="#FFFFFF" />
<rect x="0" y="12" width="1" height="1" fill="#007B94" />
<rect x="1" y="12" width="1" height="1" fill="#000000" />
<rect x="2" y="12" width="1" height="1" fill="#0052C6" />
<rect x="3" y="12" width="1" height="1" fill="#008CFF" />
<rect x="4" y="12" width="1" height="1" fill="#39CEFF" />
<rect x="5" y="12" width="1" height="1" fill="#00008C" />
<rect x="6" y="12" width="1" height="1" fill="#0000C6" />
<rect x="7" y="12" width="1" height="1" fill="#7373FF" />
<rect x="8" y="12" width="1" height="1" fill="#5AA5E7" />
<rect x="9" y="12" width="1" height="1" fill="#8CDEFF" />
<rect x="10" y="12" width="1" height="1" fill="#C6EFFF" />
<rect x="11" y="12" width="1" height="1" fill="#5A2900" />
<rect x="12" y="12" width="1" height="1" fill="#945208" />
<rect x="13" y="12" width="1" height="1" fill="#C67318" />
<rect x="14" y="12" width="1" height="1" fill="#E7BD8C" />
<rect x="15" y="12" width="1" height="1" fill="#FFFFFF" />
<rect x="0" y="13" width="1" height="1" fill="#007B94" />
<rect x="1" y="13" width="1" height="1" fill="#000000" />
<rect x="2" y="13" width="1" height="1" fill="#E73963" />
<rect x="3" y="13" width="1" height="1" fill="#FF8CAD" />
<rect x="4" y="13" width="1" height="1" fill="#FFC6D6" />
<rect x="5" y="13" width="1" height="1" fill="#52009C" />
<rect x="6" y="13" width="1" height="1" fill="#8C00D6" />
<rect x="7" y="13" width="1" height="1" fill="#DE4AFF" />
<rect x="8" y="13" width="1" height="1" fill="#D6A500" />
<rect x="9" y="13" width="1" height="1" fill="#E7C600" />
<rect x="10" y="13" width="1" height="1" fill="#FFF700" />
<rect x="11" y="13" width="1" height="1" fill="#8C00D6" />
<rect x="12" y="13" width="1" height="1" fill="#B54AFF" />
<rect x="13" y="13" width="1" height="1" fill="#CEA5FF" />
<rect x="14" y="13" width="1" height="1" fill="#E7D6FF" />
<rect x="15" y="13" width="1" height="1" fill="#FFFFFF" />
<rect x="0" y="14" width="1" height="1" fill="#007B94" />
<rect x="1" y="14" width="1" height="1" fill="#000000" />
<rect x="2" y="14" width="1" height="1" fill="#52009C" />
<rect x="3" y="14" width="1" height="1" fill="#8C00D6" />
<rect x="4" y="14" width="1" height="1" fill="#DE4AFF" />
<rect x="5" y="14" width="1" height="1" fill="#9C00B5" />
<rect x="6" y="14" width="1" height="1" fill="#D600EF" />
<rect x="7" y="14" width="1" height="1" fill="#FF7BFF" />
<rect x="8" y="14" width="1" height="1" fill="#BD5200" />
<rect x="9" y="14" width="1" height="1" fill="#FF9400" />
<rect x="10" y="14" width="1" height="1" fill="#FFCE31" />
<rect x="11" y="14" width="1" height="1" fill="#218CDE" />
<rect x="12" y="14" width="1" height="1" fill="#42C6FF" />
<rect x="13" y="14" width="1" height="1" fill="#7BE7FF" />
<rect x="14" y="14" width="1" height="1" fill="#B5FFFF" />
<rect x="15" y="14" width="1" height="1" fill="#FFFFFF" />
<rect x="0" y="15" width="1" height="1" fill="#007B94" />
<rect x="1" y="15" width="1" height="1" fill="#000000" />
<rect x="2" y="15" width="1" height="1" fill="#218400" />
<rect x="3" y="15" width="1" height="1" fill="#5AC631" />
<rect x="4" y="15" width="1" height="1" fill="#8CFF63" />
<rect x="5" y="15" width="1" height="1" fill="#A50039" />
<rect x="6" y="15" width="1" height="1" fill="#FF0094" />
<rect x="7" y="15" width="1" height="1" fill="#FF7BFF" />
<rect x="8" y="15" width="1" height="1" fill="#ADB5BD" />
<rect x="9" y="15" width="1" height="1" fill="#D6DEDE" />
<rect x="10" y="15" width="1" height="1" fill="#FFFFFF" />
<rect x="11" y="15" width="1" height="1" fill="#AD3900" />
<rect x="12" y="15" width="1" height="1" fill="#D67B00" />
<rect x="13" y="15" width="1" height="1" fill="#FFB500" />
<rect x="14" y="15" width="1" height="1" fill="#FFDE7B" />
<rect x="15" y="15" width="1" height="1" fill="#FFFFFF" />
</svg>